<svg width="12" height="13" viewBox="0 0 12 13" fill="none" xmlns="http://www.w3.org/2000/svg">
<path d="M11.92 6.11915C11.8724 5.9964 11.801 5.88425 11.71 5.78915L6.71 0.789148C6.61676 0.695909 6.50607 0.621949 6.38425 0.571488C6.26243 0.521028 6.13186 0.495056 6 0.495056C5.7337 0.495056 5.4783 0.600844 5.29 0.789148C5.19676 0.882386 5.1228 0.993077 5.07234 1.1149C5.02188 1.23672 4.99591 1.36729 4.99591 1.49915C4.99591 1.76545 5.1017 2.02084 5.29 2.20915L8.59 5.49915H1C0.734784 5.49915 0.48043 5.60451 0.292893 5.79204C0.105357 5.97958 0 6.23393 0 6.49915C0 6.76436 0.105357 7.01872 0.292893 7.20625C0.48043 7.39379 0.734784 7.49915 1 7.49915H8.59L5.29 10.7891C5.19627 10.8821 5.12188 10.9927 5.07111 11.1146C5.02034 11.2364 4.9942 11.3671 4.9942 11.4991C4.9942 11.6312 5.02034 11.7619 5.07111 11.8837C5.12188 12.0056 5.19627 12.1162 5.29 12.2091C5.38296 12.3029 5.49356 12.3773 5.61542 12.428C5.73728 12.4788 5.86799 12.5049 6 12.5049C6.13201 12.5049 6.26272 12.4788 6.38458 12.428C6.50644 12.3773 6.61704 12.3029 6.71 12.2091L11.71 7.20915C11.801 7.11404 11.8724 7.0019 11.92 6.87915C12.02 6.63569 12.02 6.36261 11.92 6.11915Z" fill="#FFFFFF"/>
</svg>
