<svg width="22" height="22" viewBox="0 0 22 22" fill="none" xmlns="http://www.w3.org/2000/svg">
<path d="M16.506 13.2446L15.3401 12.0786C15.022 11.7605 14.5823 11.6011 14.1346 11.6414C13.6867 11.6816 13.2827 11.9166 13.0263 12.2861L12.6202 12.8713C12.0679 12.7729 10.9993 12.4945 10.2525 11.7475C9.50528 11.0003 9.22684 9.93132 9.12861 9.37982L9.71402 8.97364C10.0836 8.7172 10.3185 8.31316 10.3586 7.86517C10.3988 7.41718 10.2394 6.97787 9.92139 6.6599L8.75547 5.49398C8.28694 5.0255 7.58075 4.91369 6.99809 5.21559C5.97647 5.74488 5.30538 6.73703 5.10824 8.00925C4.78713 10.082 5.74538 12.5274 7.60898 14.391C9.23432 16.0163 11.302 16.9529 13.1792 16.9529C13.4545 16.9529 13.7257 16.9328 13.9907 16.8917C15.263 16.6947 16.2551 16.0235 16.7844 15.0019C17.0862 14.4192 16.9744 13.713 16.506 13.2446ZM15.5981 14.3873C15.1775 15.1992 14.3806 15.4793 13.7862 15.5714C12.1519 15.8245 10.0979 14.9904 8.55369 13.4462C7.00952 11.902 6.17533 9.84818 6.4285 8.21378C6.52054 7.61935 6.80078 6.82254 7.61263 6.40187C7.63463 6.39053 7.65895 6.38498 7.68362 6.38498C7.72899 6.38498 7.77557 6.40368 7.81063 6.43869L8.97659 7.60465C9.02502 7.65316 9.0312 7.70825 9.02781 7.74593C9.02441 7.78366 9.0086 7.83677 8.95223 7.87587L8.03128 8.5149C7.83869 8.64853 7.73019 8.87343 7.74553 9.10736C7.75133 9.1957 7.90327 11.2878 9.30766 12.6922C10.7121 14.0966 12.8041 14.2486 12.8925 14.2543C13.1262 14.2694 13.3513 14.1612 13.485 13.9685L14.124 13.0476C14.1631 12.9913 14.2162 12.9754 14.2539 12.9721C14.2917 12.9686 14.3467 12.9748 14.3953 13.0233L15.5612 14.1892C15.6154 14.2433 15.6305 14.3248 15.5981 14.3873Z" fill="white"/>
<path d="M18.778 3.22197C16.7003 1.14421 13.9379 0 10.9996 0C8.06118 0 5.29881 1.14421 3.22109 3.22193C1.4552 4.98781 0.334149 7.32493 0.0643048 9.80276C-0.190801 12.1452 0.318293 14.5295 1.49942 16.5506L0.353098 20.8287C0.291309 21.0592 0.357223 21.3052 0.526047 21.474C0.694786 21.6427 0.940868 21.7086 1.17127 21.6469L5.44933 20.5006C7.12958 21.4825 9.06098 22 11.0105 22C11.406 22 11.8022 21.9787 12.1972 21.9357C14.675 21.6659 17.0122 20.5448 18.778 18.7788C20.8558 16.7012 22 13.9387 22 11.0004C22 8.06214 20.8557 5.29968 18.778 3.22197ZM17.8333 17.8341C14.6394 21.028 9.73366 21.5955 5.90355 19.2144C5.79664 19.148 5.67431 19.1137 5.55077 19.1137C5.49294 19.1137 5.43484 19.1213 5.37791 19.1365L1.94311 20.0569L2.86351 16.6221C2.91129 16.4437 2.88306 16.2534 2.78556 16.0965C0.40436 12.2662 0.971977 7.36055 4.1658 4.16668C7.934 0.398578 14.0651 0.398578 17.8333 4.16668C21.6014 7.93478 21.6014 14.066 17.8333 17.8341Z" fill="white"/>
</svg>
