<svg width="16" height="16" viewBox="0 0 16 16" fill="none" xmlns="http://www.w3.org/2000/svg">
<path d="M12 3.83333H12.8V4.66667C12.8 4.88768 12.8843 5.09964 13.0343 5.25592C13.1843 5.4122 13.3878 5.5 13.6 5.5C13.8122 5.5 14.0157 5.4122 14.1657 5.25592C14.3157 5.09964 14.4 4.88768 14.4 4.66667V3.83333H15.2C15.4122 3.83333 15.6157 3.74554 15.7657 3.58926C15.9157 3.43298 16 3.22101 16 3C16 2.77899 15.9157 2.56702 15.7657 2.41074C15.6157 2.25446 15.4122 2.16667 15.2 2.16667H14.4V1.33333C14.4 1.11232 14.3157 0.900358 14.1657 0.744078C14.0157 0.587797 13.8122 0.5 13.6 0.5C13.3878 0.5 13.1843 0.587797 13.0343 0.744078C12.8843 0.900358 12.8 1.11232 12.8 1.33333V2.16667H12C11.7878 2.16667 11.5843 2.25446 11.4343 2.41074C11.2843 2.56702 11.2 2.77899 11.2 3C11.2 3.22101 11.2843 3.43298 11.4343 3.58926C11.5843 3.74554 11.7878 3.83333 12 3.83333ZM15.2 7.16667C14.9878 7.16667 14.7843 7.25446 14.6343 7.41074C14.4843 7.56702 14.4 7.77899 14.4 8V13C14.4 13.221 14.3157 13.433 14.1657 13.5893C14.0157 13.7455 13.8122 13.8333 13.6 13.8333H2.4C2.18783 13.8333 1.98434 13.7455 1.83431 13.5893C1.68429 13.433 1.6 13.221 1.6 13V5.00833L6.304 9.91667C6.754 10.3848 7.364 10.6478 8 10.6478C8.636 10.6478 9.246 10.3848 9.696 9.91667L11.672 7.85833C11.8226 7.70141 11.9073 7.48858 11.9073 7.26667C11.9073 7.04475 11.8226 6.83192 11.672 6.675C11.5214 6.51808 11.317 6.42992 11.104 6.42992C10.891 6.42992 10.6866 6.51808 10.536 6.675L8.56 8.73333C8.41046 8.88602 8.2094 8.97155 8 8.97155C7.7906 8.97155 7.58954 8.88602 7.44 8.73333L2.728 3.83333H8.8C9.01217 3.83333 9.21566 3.74554 9.36569 3.58926C9.51571 3.43298 9.6 3.22101 9.6 3C9.6 2.77899 9.51571 2.56702 9.36569 2.41074C9.21566 2.25446 9.01217 2.16667 8.8 2.16667H2.4C1.76348 2.16667 1.15303 2.43006 0.702944 2.8989C0.252856 3.36774 0 4.00363 0 4.66667V13C0 13.663 0.252856 14.2989 0.702944 14.7678C1.15303 15.2366 1.76348 15.5 2.4 15.5H13.6C14.2365 15.5 14.847 15.2366 15.2971 14.7678C15.7471 14.2989 16 13.663 16 13V8C16 7.77899 15.9157 7.56702 15.7657 7.41074C15.6157 7.25446 15.4122 7.16667 15.2 7.16667Z" fill="#FEFCF5"/>
</svg>
