<svg width="30" height="30" viewBox="0 0 30 30" fill="none" xmlns="http://www.w3.org/2000/svg">
<path d="M29.2611 13.218L16.7714 0.71283C16.5338 0.485134 16.2537 0.306647 15.9471 0.187612C15.3389 -0.0625373 14.6568 -0.0625373 14.0487 0.187612C13.742 0.306647 13.4619 0.485134 13.2243 0.71283L0.734624 13.218C0.501719 13.4512 0.31697 13.7281 0.190923 14.0327C0.0648763 14.3374 0 14.664 0 14.9938C0 15.6598 0.264252 16.2985 0.734624 16.7695C1.205 17.2405 1.84296 17.505 2.50816 17.505C3.17337 17.505 3.81133 17.2405 4.2817 16.7695L12.4999 8.51607V27.499C12.4999 28.1623 12.7631 28.7984 13.2316 29.2675C13.7 29.7365 14.3354 30 14.9979 30C15.6604 30 16.2957 29.7365 16.7642 29.2675C17.2326 28.7984 17.4958 28.1623 17.4958 27.499V8.51607L25.714 16.7695C25.9463 17.0039 26.2225 17.19 26.5269 17.317C26.8313 17.4439 27.1578 17.5093 27.4876 17.5093C27.8173 17.5093 28.1438 17.4439 28.4482 17.317C28.7526 17.19 29.0289 17.0039 29.2611 16.7695C29.4952 16.537 29.6811 16.2604 29.8079 15.9556C29.9347 15.6508 30 15.3239 30 14.9938C30 14.6636 29.9347 14.3367 29.8079 14.0319C29.6811 13.7271 29.4952 13.4505 29.2611 13.218Z" fill="black"/>
</svg>
