<svg width="20" height="7" viewBox="0 0 20 7" fill="none" xmlns="http://www.w3.org/2000/svg">
<path d="M1 2.5H19C19.2652 2.5 19.5196 2.39464 19.7071 2.20711C19.8946 2.01957 20 1.76522 20 1.5C20 1.23478 19.8946 0.98043 19.7071 0.792893C19.5196 0.605357 19.2652 0.5 19 0.5H1C0.734784 0.5 0.48043 0.605357 0.292893 0.792893C0.105357 0.98043 0 1.23478 0 1.5C0 1.76522 0.105357 2.01957 0.292893 2.20711C0.48043 2.39464 0.734784 2.5 1 2.5ZM19 4.5H1C0.734784 4.5 0.48043 4.60536 0.292893 4.79289C0.105357 4.98043 0 5.23478 0 5.5C0 5.76522 0.105357 6.01957 0.292893 6.20711C0.48043 6.39464 0.734784 6.5 1 6.5H19C19.2652 6.5 19.5196 6.39464 19.7071 6.20711C19.8946 6.01957 20 5.76522 20 5.5C20 5.23478 19.8946 4.98043 19.7071 4.79289C19.5196 4.60536 19.2652 4.5 19 4.5Z" fill="black"/>
</svg>
