<svg width="115" height="115" viewBox="0 0 115 115" fill="none" xmlns="http://www.w3.org/2000/svg">
<path d="M113.493 6.61417C112.533 4.30303 110.697 2.46645 108.386 1.50667C107.249 1.02201 106.028 0.764944 104.792 0.75H10.2082C7.69974 0.75 5.29398 1.7465 3.52019 3.52028C1.74641 5.29407 0.749911 7.69983 0.749911 10.2083C0.749911 12.7168 1.74641 15.1226 3.52019 16.8964C5.29398 18.6702 7.69974 19.6667 10.2082 19.6667H81.997L3.49283 98.0763C2.60631 98.9555 1.90267 100.002 1.42248 101.154C0.942295 102.307 0.695068 103.543 0.695068 104.792C0.695068 106.04 0.942295 107.277 1.42248 108.429C1.90267 109.582 2.60631 110.628 3.49283 111.507C4.3721 112.394 5.4182 113.097 6.57079 113.577C7.72337 114.058 8.95963 114.305 10.2082 114.305C11.4569 114.305 12.6931 114.058 13.8457 113.577C14.9983 113.097 16.0444 112.394 16.9237 111.507L95.3333 33.0029V104.792C95.3333 107.3 96.3297 109.706 98.1035 111.48C99.8773 113.254 102.283 114.25 104.792 114.25C107.3 114.25 109.706 113.254 111.48 111.48C113.253 109.706 114.25 107.3 114.25 104.792V10.2083C114.235 8.97234 113.978 7.75127 113.493 6.61417Z" fill="#FEFCF5"/>
</svg>
