<svg width="11" height="22" viewBox="0 0 11 22" fill="none" xmlns="http://www.w3.org/2000/svg">
<g clip-path="url(#clip0_237_16)">
<path d="M7.39831 11.3973V16.6085C7.39831 17.6476 6.5493 18.4895 5.50241 18.4895C4.83322 18.4895 4.24512 18.146 3.90728 17.626C3.71727 17.3327 3.60651 16.9837 3.60651 16.6085V10.8533C3.6181 9.82432 4.46247 8.99348 5.50241 8.99348C6.458 8.99348 7.24908 9.69557 7.37931 10.6083C7.38301 10.6069 7.38626 10.606 7.38997 10.6046C7.42148 10.594 7.45253 10.5825 7.48404 10.5701C7.5049 10.5623 7.52575 10.5545 7.54614 10.5462C7.55263 10.5439 7.55865 10.5416 7.56514 10.5393C7.79361 10.4464 8.01374 10.3393 8.22599 10.2184C8.23434 10.2133 8.24268 10.2087 8.25148 10.2036C8.46281 10.0818 8.66533 9.94616 8.85719 9.79811C8.86275 9.79397 8.86785 9.79029 8.87294 9.78615C9.06758 9.63534 9.25157 9.47166 9.42396 9.29648C9.42535 9.2951 9.42674 9.29326 9.4286 9.29188C9.43184 9.28912 9.43462 9.28544 9.43787 9.28222C9.45362 9.26613 9.46892 9.25004 9.48467 9.23395C9.48514 9.23349 9.4856 9.23257 9.48653 9.23211C9.49904 9.21831 9.51202 9.20498 9.52499 9.19165C9.53148 9.18383 9.53843 9.17693 9.54492 9.16958C9.55651 9.15762 9.56809 9.14567 9.57875 9.13233C9.58338 9.12728 9.58802 9.12268 9.59219 9.11716C9.59636 9.11302 9.60007 9.10842 9.60378 9.10429C9.61443 9.09279 9.62509 9.08084 9.63529 9.06888C9.64178 9.06199 9.6478 9.05509 9.65336 9.04819C9.65661 9.04497 9.65939 9.0413 9.66263 9.03808C9.66819 9.03164 9.67329 9.02566 9.67839 9.01968C9.68024 9.01785 9.68163 9.01555 9.68349 9.01371C9.68719 9.00957 9.6909 9.00543 9.69414 9.00129C9.69553 8.99991 9.69646 8.99899 9.69739 8.99715C9.7099 8.9829 9.72149 8.96865 9.73354 8.95439C9.7391 8.94796 9.74419 8.94198 9.74929 8.93554C9.7618 8.92129 9.77432 8.90612 9.7859 8.89094C9.78729 8.88956 9.78822 8.88772 9.78961 8.88635C9.79146 8.88405 9.79332 8.88175 9.79517 8.87945C9.80212 8.87117 9.80861 8.8629 9.81556 8.85416C9.81742 8.8514 9.81927 8.84956 9.82112 8.8468C9.84337 8.81784 9.86561 8.78933 9.88739 8.76036C9.89759 8.74657 9.90779 8.73324 9.91798 8.71944C9.92215 8.71438 9.92632 8.70887 9.93003 8.70335C9.93606 8.69553 9.94254 8.68726 9.9481 8.67898C9.95413 8.6707 9.96015 8.66289 9.96571 8.65461C9.96571 8.65461 9.96602 8.65415 9.96664 8.65323C9.9722 8.64588 9.9773 8.63898 9.9824 8.63162C9.98796 8.62473 9.99259 8.61737 9.99769 8.61001C10.0056 8.59944 10.013 8.58886 10.0199 8.57829C10.0274 8.56771 10.0343 8.55714 10.0417 8.54656C10.0426 8.54518 10.0436 8.54426 10.044 8.54288C10.0579 8.52265 10.0714 8.50288 10.0848 8.48265C10.1071 8.44955 10.1288 8.41644 10.1502 8.38288C10.1604 8.36724 10.1701 8.35115 10.1798 8.33506C10.1812 8.33276 10.1826 8.33046 10.184 8.32816C10.1928 8.31483 10.2007 8.30149 10.209 8.2877C10.2201 8.26931 10.2313 8.25046 10.2424 8.23207C10.2563 8.20862 10.2702 8.18471 10.2836 8.1608C10.2915 8.14746 10.2989 8.13413 10.3063 8.1208C10.3216 8.09275 10.3374 8.06516 10.3527 8.03619C10.3555 8.03068 10.3582 8.02562 10.3606 8.0201C10.3619 8.01826 10.3629 8.01596 10.3638 8.01413C10.3657 8.01091 10.3675 8.00769 10.3694 8.00401C10.3703 8.00217 10.3712 8.00033 10.3726 7.99895C10.3754 7.99343 10.3777 7.98884 10.38 7.98378C10.3944 7.95711 10.4078 7.92998 10.4213 7.90286C10.4217 7.90148 10.4227 7.90056 10.4231 7.89918C10.425 7.89596 10.4264 7.89274 10.4282 7.88906C10.4329 7.88033 10.437 7.87159 10.4417 7.86239C10.4514 7.8417 10.4616 7.82101 10.4713 7.80078C10.481 7.77963 10.4912 7.75848 10.5005 7.73733C10.5214 7.69273 10.5413 7.64767 10.5603 7.60261C10.5737 7.57135 10.5867 7.54008 10.5992 7.50882C10.6011 7.50514 10.6025 7.501 10.6039 7.49686C10.6127 7.47525 10.6215 7.45318 10.6298 7.43111C10.6433 7.39663 10.6567 7.36168 10.6692 7.32674C10.6697 7.32536 10.6701 7.32444 10.6706 7.32306C10.7003 7.24168 10.7281 7.15984 10.7535 7.07661C10.7545 7.0734 10.7549 7.07018 10.7559 7.06788C10.7809 6.98558 10.8045 6.90327 10.8258 6.81959C10.8268 6.81591 10.8277 6.81224 10.8286 6.80764C10.8495 6.72534 10.8685 6.64257 10.8856 6.55797C10.8861 6.55659 10.8861 6.55521 10.8866 6.55337C10.8954 6.50969 10.9037 6.46555 10.9116 6.42141C10.9195 6.37727 10.9269 6.33314 10.9334 6.28854C10.9403 6.2444 10.9463 6.19934 10.9519 6.15474C10.9575 6.11014 10.9626 6.06508 10.9672 6.02002C10.9672 6.02002 10.9677 6.01588 10.9677 6.01404C10.9718 5.97082 10.976 5.9276 10.9792 5.88392C10.9816 5.8499 10.9839 5.81541 10.9857 5.78139C10.9867 5.76621 10.9876 5.75058 10.988 5.73495C10.989 5.72391 10.9894 5.71334 10.9899 5.70276V5.69817C10.9908 5.68345 10.9913 5.66874 10.9913 5.65403C10.9922 5.63885 10.9927 5.62414 10.9927 5.60943C10.9931 5.59839 10.9931 5.5869 10.9936 5.57632V5.57356C10.9941 5.53908 10.9945 5.50459 10.9945 5.47057C10.9945 5.3147 10.9871 5.16021 10.9737 5.00756C10.9718 4.98917 10.97 4.97032 10.9686 4.95193C10.9681 4.94917 10.9681 4.94687 10.9681 4.94411C10.9681 4.94227 10.9681 4.94043 10.9681 4.93859C10.9677 4.93584 10.9677 4.93262 10.9672 4.92986C10.9667 4.92526 10.9663 4.92112 10.9658 4.91652C10.9639 4.90043 10.9621 4.88388 10.9607 4.86779C10.9593 4.85813 10.9584 4.84847 10.9575 4.83928C10.9556 4.82135 10.9528 4.80342 10.9505 4.78456C10.95 4.77905 10.9491 4.77353 10.9487 4.76801C10.9487 4.76663 10.9487 4.76525 10.9487 4.76387V4.76249C10.9477 4.75744 10.9468 4.751 10.9463 4.74502C10.9454 4.73905 10.9449 4.73307 10.944 4.72663C10.9417 4.70732 10.9394 4.68847 10.9366 4.6687C10.9361 4.66824 10.9361 4.6664 10.9361 4.66548C10.9287 4.61812 10.9199 4.57076 10.912 4.52386C10.9097 4.51191 10.9079 4.49995 10.906 4.48846C10.9042 4.48018 10.9028 4.47237 10.9014 4.46409C10.9009 4.46271 10.9009 4.46133 10.9005 4.45949C10.8977 4.44432 10.8954 4.42915 10.8926 4.41397C10.8916 4.41122 10.8912 4.408 10.8907 4.40524C10.8903 4.40202 10.8893 4.3988 10.8889 4.39558V4.3942C10.8879 4.38961 10.8866 4.38363 10.8852 4.37811C10.8852 4.37673 10.8852 4.37581 10.8842 4.37443C10.8833 4.36937 10.8819 4.36432 10.8805 4.35834C10.8777 4.34455 10.874 4.32845 10.8699 4.3119C10.8625 4.27742 10.8546 4.24247 10.8462 4.20845C10.8397 4.17994 10.8328 4.15143 10.8254 4.12293C10.8207 4.10454 10.8161 4.08614 10.811 4.06775C10.7888 3.98453 10.7651 3.90131 10.7387 3.81947C10.7304 3.79234 10.7216 3.76613 10.7123 3.739C10.7072 3.72291 10.7016 3.70682 10.6961 3.69119C10.6859 3.6613 10.6757 3.63233 10.6646 3.60291C10.653 3.57072 10.6405 3.53762 10.628 3.50497C10.6173 3.47784 10.6066 3.45072 10.596 3.42405C10.5937 3.41853 10.5918 3.41301 10.5895 3.40796C10.5761 3.37577 10.5626 3.34358 10.5487 3.31186C10.5404 3.29209 10.532 3.27186 10.5232 3.25209C10.5144 3.23232 10.5051 3.213 10.4963 3.19323C10.4852 3.16932 10.4741 3.14588 10.4625 3.12243C10.4625 3.12059 10.4616 3.11921 10.4607 3.11783C10.4486 3.09254 10.4366 3.06771 10.424 3.04288C10.4217 3.03828 10.4194 3.03369 10.4171 3.02909C10.4074 3.00932 10.3972 2.99001 10.387 2.97024C10.3828 2.96196 10.3786 2.95414 10.3745 2.94633C10.3731 2.94311 10.3712 2.93989 10.3698 2.93713C10.3652 2.92794 10.3601 2.9192 10.3555 2.91046C10.3494 2.89897 10.3434 2.88747 10.3369 2.87598C10.3314 2.86586 10.3263 2.85575 10.3207 2.84563C10.304 2.81529 10.2869 2.7854 10.2697 2.75551C10.2697 2.75505 10.2693 2.75459 10.2693 2.75459C10.2238 2.67597 10.1766 2.59827 10.1275 2.5224C10.1265 2.52056 10.1256 2.51872 10.1242 2.51734C10.076 2.4424 10.026 2.36929 9.97406 2.29618C9.9722 2.29389 9.97035 2.29159 9.96896 2.28929C9.91705 2.21756 9.86376 2.14675 9.80861 2.07778C9.80676 2.07549 9.8049 2.07273 9.80259 2.07043C9.74697 2.00146 9.68997 1.93249 9.63112 1.86582C9.62973 1.86444 9.6288 1.86352 9.62741 1.86168C9.61212 1.84467 9.59682 1.8272 9.58107 1.81019C9.57273 1.80099 9.56485 1.7918 9.55651 1.78306C9.54909 1.77478 9.54167 1.76697 9.53426 1.75915C9.52407 1.74858 9.51387 1.73708 9.50321 1.72605C9.49626 1.71823 9.48884 1.71133 9.48189 1.70352C9.47726 1.69846 9.47216 1.6934 9.46753 1.68834C9.44574 1.66581 9.42443 1.64374 9.40265 1.62213C9.37669 1.59638 9.35074 1.57064 9.32433 1.54535L9.3132 1.53431C9.29884 1.52052 9.28447 1.50673 9.26964 1.49293C9.25667 1.48052 9.24323 1.46856 9.23025 1.45661C9.20847 1.43638 9.18669 1.41661 9.16491 1.3973C9.16259 1.395 9.15981 1.3927 9.15749 1.3904C9.14405 1.3789 9.13061 1.36695 9.11717 1.355C9.10929 1.3481 9.10142 1.3412 9.09354 1.33476C9.08983 1.33109 9.08566 1.32787 9.08149 1.32419C9.07732 1.32097 9.07361 1.31775 9.06944 1.31407H9.06898C9.06898 1.31407 9.06666 1.31178 9.06527 1.31086C9.05183 1.29936 9.03793 1.28787 9.02449 1.27637C9.02356 1.27545 9.02263 1.27453 9.02171 1.27453C9.018 1.27039 9.01429 1.26718 9.01012 1.26396C9.00595 1.26074 9.00178 1.25706 8.99761 1.25384C8.98973 1.2474 8.98231 1.24097 8.97443 1.23499C8.96609 1.22855 8.95775 1.22166 8.94941 1.21522C8.93782 1.20556 8.92578 1.19591 8.91419 1.18671C8.9026 1.17706 8.89055 1.16832 8.87851 1.15867H8.87804C8.86831 1.15085 8.85858 1.14349 8.84885 1.1366C8.84143 1.1297 8.83355 1.12372 8.82567 1.11774C8.81919 1.11361 8.8127 1.10809 8.80621 1.10303C8.80389 1.10211 8.80204 1.10027 8.79972 1.09843C8.79462 1.09429 8.78906 1.09062 8.78397 1.08694C8.76867 1.07544 8.75292 1.06395 8.73716 1.05245L8.7024 1.02763C8.7024 1.02763 8.69869 1.02487 8.69684 1.02349C8.68618 1.01567 8.67506 1.00785 8.66394 1.00004C8.66255 0.999119 8.66162 0.998659 8.66023 0.997739C8.65003 0.990383 8.63937 0.983026 8.62918 0.976129C8.60091 0.956358 8.57264 0.937047 8.54391 0.918196C8.51518 0.898884 8.48598 0.880033 8.45725 0.861641C8.42805 0.84325 8.39885 0.824858 8.36919 0.806926C8.36132 0.802329 8.3539 0.797731 8.34649 0.793133C8.33907 0.788995 8.33119 0.783937 8.32332 0.779339C8.30802 0.770143 8.29273 0.760488 8.27697 0.751292C8.25936 0.741177 8.24175 0.731521 8.22368 0.720946C8.17502 0.693359 8.12589 0.665771 8.07584 0.639563C8.01143 0.605079 7.94655 0.571055 7.88074 0.539789C7.87518 0.53703 7.86962 0.534731 7.86359 0.532432C7.84922 0.525535 7.83486 0.518639 7.82049 0.511742C7.8103 0.507144 7.8001 0.502086 7.78991 0.497948C7.7862 0.495649 7.78203 0.49427 7.77786 0.49289C7.77647 0.491511 7.77461 0.490591 7.77322 0.490132C7.75839 0.483235 7.74356 0.476338 7.72827 0.469901C7.72317 0.468062 7.71807 0.465763 7.71298 0.463464C7.70927 0.461625 7.7051 0.460245 7.70093 0.458406C7.6949 0.455647 7.68934 0.452889 7.68332 0.45059C7.67544 0.447371 7.66756 0.444153 7.65968 0.440474C7.64439 0.434037 7.62909 0.4276 7.6138 0.421163C7.57904 0.40645 7.5429 0.393116 7.50768 0.379322C7.46736 0.36369 7.4275 0.346677 7.38672 0.331964C7.38394 0.331045 7.38116 0.330125 7.37838 0.329205C7.30747 0.303457 7.23611 0.279548 7.16381 0.256559C7.14296 0.250581 7.1221 0.243685 7.10171 0.237707C7.09754 0.236328 7.09291 0.234949 7.08873 0.234029C7.06695 0.227132 7.04517 0.220695 7.02293 0.214718C7.01273 0.211499 7.00254 0.208741 6.99234 0.205982C6.9891 0.205982 6.98539 0.204143 6.98215 0.203223H6.98168C6.97195 0.200464 6.96268 0.197706 6.95295 0.194947C6.9409 0.191728 6.92931 0.18897 6.91726 0.185751C6.90614 0.182533 6.89502 0.179774 6.88436 0.177015C6.8788 0.175636 6.87324 0.173797 6.86768 0.172417C6.8649 0.171957 6.86258 0.171038 6.8598 0.171038C6.84821 0.16736 6.83616 0.164601 6.82412 0.161382C6.81994 0.160463 6.81624 0.159543 6.81207 0.158624C6.80558 0.157244 6.79863 0.155405 6.79214 0.154026C6.76433 0.147129 6.73606 0.140692 6.70733 0.134714C6.69713 0.131956 6.68694 0.130117 6.67674 0.127818C6.65033 0.1223 6.62438 0.116323 6.59842 0.111265C6.5873 0.108966 6.57572 0.106667 6.56413 0.104368C6.55301 0.102069 6.54189 0.10023 6.5303 0.0983911C6.52242 0.096552 6.51408 0.0951726 6.5062 0.0937932C6.48859 0.0905747 6.47098 0.0868964 6.45337 0.0841377C6.4441 0.0827583 6.4353 0.0809191 6.42649 0.0795398C6.4251 0.0795398 6.42325 0.0795398 6.42186 0.0795398C6.41676 0.0781604 6.41166 0.0772408 6.40656 0.076781C6.38015 0.0721831 6.35327 0.068045 6.32685 0.0639069L6.31712 0.0625276C6.3148 0.0620678 6.31249 0.061608 6.31017 0.061608C6.30785 0.0611482 6.30507 0.0606884 6.30276 0.0602286C6.29117 0.0583895 6.28005 0.0565503 6.26893 0.0551709C6.24483 0.0519524 6.22073 0.0491937 6.19709 0.0459751C6.18273 0.044136 6.16882 0.0422968 6.15446 0.0404577C6.14704 0.0390783 6.13916 0.0381587 6.13175 0.0376989C6.12155 0.0363196 6.11136 0.0349402 6.10116 0.0340206C6.07706 0.0312619 6.05204 0.0285031 6.0284 0.0262042C6.0247 0.0257444 6.02145 0.0257444 6.01775 0.0252846C5.98623 0.0225259 5.95518 0.0197672 5.92367 0.0174682C5.91023 0.0160888 5.89633 0.0151693 5.88289 0.0147095C5.86435 0.0133301 5.84535 0.0119507 5.82681 0.0110312C5.82635 0.0110312 5.82588 0.0110312 5.82542 0.0110312C5.81893 0.0110312 5.81337 0.0101116 5.80688 0.00965178C5.704 0.00505389 5.60019 0.000915786 5.495 0.000915786C2.45813 -3.79246e-06 -0.00500488 2.44883 -0.00500488 5.47057V16.5294C-0.00500488 16.5607 -0.00454145 16.592 -0.00361459 16.6228C0.00797119 17.3442 0.16044 18.0316 0.427376 18.6587C0.496891 18.8224 0.574284 18.9819 0.658628 19.1374C0.785609 19.3695 0.929272 19.5921 1.08777 19.8027C1.29863 20.0836 1.53637 20.3434 1.79682 20.5788C1.92704 20.6965 2.06329 20.8082 2.20417 20.9131C2.41596 21.0708 2.6398 21.2133 2.87337 21.3397C2.95122 21.382 3.03047 21.422 3.11064 21.4607C3.51151 21.6529 3.93879 21.7977 4.38647 21.8887C4.7447 21.9623 5.11545 22 5.495 22H5.50612C5.5951 22 5.68361 21.9972 5.77166 21.9931C5.80364 21.9917 5.83562 21.9885 5.86759 21.9862C5.92691 21.9821 5.98623 21.9784 6.04509 21.9729C6.08216 21.9692 6.11877 21.9637 6.15538 21.9595C6.20868 21.9536 6.26197 21.9471 6.3148 21.9393C6.35327 21.9338 6.39081 21.9264 6.42881 21.92C6.47932 21.9113 6.5303 21.903 6.58035 21.8933C6.61928 21.8851 6.65821 21.8759 6.69713 21.8676C6.74487 21.857 6.79307 21.8464 6.8408 21.8345C6.88019 21.8244 6.91912 21.8133 6.95851 21.8027C7.00485 21.7899 7.0512 21.7775 7.09708 21.7637C7.136 21.7517 7.17401 21.7388 7.21293 21.7264C7.25789 21.7122 7.3033 21.697 7.34779 21.6809C7.38626 21.6671 7.42426 21.6529 7.46226 21.6381C7.50582 21.6216 7.54985 21.6046 7.59295 21.5871C7.63095 21.5715 7.66802 21.5549 7.70556 21.5388C7.7482 21.52 7.79083 21.5011 7.833 21.4814C7.86962 21.4643 7.90623 21.4464 7.94284 21.4285C7.98408 21.4078 8.02533 21.3876 8.06611 21.3655C8.10226 21.3466 8.13794 21.3269 8.17363 21.3071C8.21394 21.285 8.2538 21.262 8.29319 21.239C8.32841 21.2184 8.36317 21.1977 8.39746 21.1756C8.43686 21.1517 8.47532 21.1269 8.51379 21.102C8.54762 21.08 8.58145 21.057 8.61481 21.0344C8.65235 21.0082 8.68989 20.9816 8.72696 20.9549C8.7594 20.9314 8.79231 20.9075 8.82428 20.8832C8.8609 20.8556 8.89704 20.8271 8.93319 20.7981C8.96424 20.7733 8.99575 20.7485 9.02634 20.7227C9.06156 20.6928 9.09632 20.6625 9.13107 20.6321C9.1612 20.6059 9.19132 20.5797 9.22052 20.553C9.22932 20.5448 9.23813 20.536 9.2474 20.5273C10.3221 19.5291 10.995 18.1079 10.995 16.5294C10.995 14.1739 9.49719 12.1674 7.39831 11.3973ZM3.60651 5.51057V5.50965C3.60651 4.47099 4.45552 3.62865 5.50241 3.62865C6.5493 3.62865 7.39831 4.47099 7.39831 5.50965C7.39831 6.1483 7.07761 6.71246 6.58684 7.05225C6.58684 7.05225 6.58684 7.05271 6.58637 7.05271C6.27912 7.26605 5.90559 7.39065 5.50241 7.39065C5.28321 7.39065 5.07281 7.35387 4.87678 7.28628L3.85723 8.29919C3.79606 8.35989 3.73535 8.42058 3.67417 8.48173H3.67371L3.60651 8.5484V5.51057Z" fill="white"/>
<path d="M7.39831 11.3973V16.6085C7.39831 17.6476 6.5493 18.4895 5.50241 18.4895C4.83322 18.4895 4.24512 18.146 3.90728 17.626C3.71727 17.3327 3.60651 16.9837 3.60651 16.6085V10.8533C3.6181 9.82432 4.46247 8.99348 5.50241 8.99348C6.458 8.99348 7.24908 9.69557 7.37931 10.6083C7.38301 10.6069 7.38626 10.606 7.38997 10.6046C7.42148 10.594 7.45253 10.5825 7.48404 10.5701C7.5049 10.5623 7.52575 10.5545 7.54614 10.5462C7.55263 10.5439 7.55865 10.5416 7.56514 10.5393C7.79361 10.4464 8.01374 10.3393 8.22599 10.2184C8.23434 10.2133 8.24268 10.2087 8.25148 10.2036C8.46281 10.0818 8.66533 9.94616 8.85719 9.79811C8.86275 9.79397 8.86785 9.79029 8.87294 9.78615C9.06758 9.63534 9.25157 9.47166 9.42396 9.29648C9.42535 9.2951 9.42674 9.29326 9.4286 9.29188C9.43184 9.28912 9.43462 9.28544 9.43787 9.28222C9.45362 9.26613 9.46892 9.25004 9.48467 9.23395C9.48514 9.23349 9.4856 9.23257 9.48653 9.23211C9.49904 9.21831 9.51202 9.20498 9.52499 9.19165C9.53148 9.18383 9.53843 9.17693 9.54492 9.16958C9.55651 9.15762 9.56809 9.14567 9.57875 9.13233C9.58338 9.12728 9.58802 9.12268 9.59219 9.11716C9.59636 9.11302 9.60007 9.10842 9.60378 9.10429C9.61443 9.09279 9.62509 9.08084 9.63529 9.06888C9.64178 9.06199 9.6478 9.05509 9.65336 9.04819C9.65661 9.04497 9.65939 9.0413 9.66263 9.03808C9.66819 9.03164 9.67329 9.02566 9.67839 9.01968C9.68024 9.01785 9.68163 9.01555 9.68349 9.01371C9.68719 9.00957 9.6909 9.00543 9.69414 9.00129C9.69553 8.99991 9.69646 8.99899 9.69739 8.99715C9.7099 8.9829 9.72149 8.96865 9.73354 8.95439C9.7391 8.94796 9.74419 8.94198 9.74929 8.93554C9.7618 8.92129 9.77432 8.90612 9.7859 8.89094C9.78729 8.88956 9.78822 8.88772 9.78961 8.88635C9.79146 8.88405 9.79332 8.88175 9.79517 8.87945C9.80212 8.87117 9.80861 8.8629 9.81556 8.85416C9.81742 8.8514 9.81927 8.84956 9.82112 8.8468C9.84337 8.81784 9.86561 8.78933 9.88739 8.76036C9.89759 8.74657 9.90779 8.73324 9.91798 8.71944C9.92215 8.71438 9.92632 8.70887 9.93003 8.70335C9.93606 8.69553 9.94254 8.68726 9.9481 8.67898C9.95413 8.6707 9.96015 8.66289 9.96571 8.65461C9.96571 8.65461 9.96602 8.65415 9.96664 8.65323C9.9722 8.64588 9.9773 8.63898 9.9824 8.63162C9.98796 8.62473 9.99259 8.61737 9.99769 8.61001C10.0056 8.59944 10.013 8.58886 10.0199 8.57829C10.0274 8.56771 10.0343 8.55714 10.0417 8.54656C10.0426 8.54518 10.0436 8.54426 10.044 8.54288C10.0579 8.52265 10.0714 8.50288 10.0848 8.48265C10.1071 8.44955 10.1288 8.41644 10.1502 8.38288C10.1604 8.36724 10.1701 8.35115 10.1798 8.33506C10.1812 8.33276 10.1826 8.33046 10.184 8.32816C10.1928 8.31483 10.2007 8.30149 10.209 8.2877C10.2201 8.26931 10.2313 8.25046 10.2424 8.23207C10.2563 8.20862 10.2702 8.18471 10.2836 8.1608C10.2915 8.14746 10.2989 8.13413 10.3063 8.1208C10.3216 8.09275 10.3374 8.06516 10.3527 8.03619C10.3555 8.03068 10.3582 8.02562 10.3606 8.0201C10.3619 8.01826 10.3629 8.01596 10.3638 8.01413C10.3657 8.01091 10.3675 8.00769 10.3694 8.00401C10.3703 8.00217 10.3712 8.00033 10.3726 7.99895C10.3754 7.99343 10.3777 7.98884 10.38 7.98378C10.3944 7.95711 10.4078 7.92998 10.4213 7.90286C10.4217 7.90148 10.4227 7.90056 10.4231 7.89918C10.425 7.89596 10.4264 7.89274 10.4282 7.88906C10.4329 7.88033 10.437 7.87159 10.4417 7.86239C10.4514 7.8417 10.4616 7.82101 10.4713 7.80078C10.481 7.77963 10.4912 7.75848 10.5005 7.73733C10.5214 7.69273 10.5413 7.64767 10.5603 7.60261C10.5737 7.57135 10.5867 7.54008 10.5992 7.50882C10.6011 7.50514 10.6025 7.501 10.6039 7.49686C10.6127 7.47525 10.6215 7.45318 10.6298 7.43111C10.6433 7.39663 10.6567 7.36168 10.6692 7.32674C10.6697 7.32536 10.6701 7.32444 10.6706 7.32306C10.7003 7.24168 10.7281 7.15984 10.7535 7.07661C10.7545 7.0734 10.7549 7.07018 10.7559 7.06788C10.7809 6.98558 10.8045 6.90327 10.8258 6.81959C10.8268 6.81591 10.8277 6.81224 10.8286 6.80764C10.8495 6.72534 10.8685 6.64257 10.8856 6.55797C10.8861 6.55659 10.8861 6.55521 10.8866 6.55337C10.8954 6.50969 10.9037 6.46555 10.9116 6.42141C10.9195 6.37727 10.9269 6.33314 10.9334 6.28854C10.9403 6.2444 10.9463 6.19934 10.9519 6.15474C10.9575 6.11014 10.9626 6.06508 10.9672 6.02002C10.9672 6.02002 10.9677 6.01588 10.9677 6.01404C10.9718 5.97082 10.976 5.9276 10.9792 5.88392C10.9816 5.8499 10.9839 5.81541 10.9857 5.78139C10.9867 5.76621 10.9876 5.75058 10.988 5.73495C10.989 5.72391 10.9894 5.71334 10.9899 5.70276V5.69817C10.9908 5.68345 10.9913 5.66874 10.9913 5.65403C10.9922 5.63885 10.9927 5.62414 10.9927 5.60943C10.9931 5.59839 10.9931 5.5869 10.9936 5.57632V5.57356C10.9941 5.53908 10.9945 5.50459 10.9945 5.47057C10.9945 5.3147 10.9871 5.16021 10.9737 5.00756C10.9718 4.98917 10.97 4.97032 10.9686 4.95193C10.9681 4.94917 10.9681 4.94687 10.9681 4.94411C10.9681 4.94227 10.9681 4.94043 10.9681 4.93859C10.9677 4.93584 10.9677 4.93262 10.9672 4.92986C10.9667 4.92526 10.9663 4.92112 10.9658 4.91652C10.9639 4.90043 10.9621 4.88388 10.9607 4.86779C10.9593 4.85813 10.9584 4.84847 10.9575 4.83928C10.9556 4.82135 10.9528 4.80342 10.9505 4.78456C10.95 4.77905 10.9491 4.77353 10.9487 4.76801C10.9487 4.76663 10.9487 4.76525 10.9487 4.76387V4.76249C10.9477 4.75744 10.9468 4.751 10.9463 4.74502C10.9454 4.73905 10.9449 4.73307 10.944 4.72663C10.9417 4.70732 10.9394 4.68847 10.9366 4.6687C10.9361 4.66824 10.9361 4.6664 10.9361 4.66548C10.9287 4.61812 10.9199 4.57076 10.912 4.52386C10.9097 4.51191 10.9079 4.49995 10.906 4.48846C10.9042 4.48018 10.9028 4.47237 10.9014 4.46409C10.9009 4.46271 10.9009 4.46133 10.9005 4.45949C10.8977 4.44432 10.8954 4.42915 10.8926 4.41397C10.8916 4.41122 10.8912 4.408 10.8907 4.40524C10.8903 4.40202 10.8893 4.3988 10.8889 4.39558V4.3942C10.8879 4.38961 10.8866 4.38363 10.8852 4.37811C10.8852 4.37673 10.8852 4.37581 10.8842 4.37443C10.8833 4.36937 10.8819 4.36432 10.8805 4.35834C10.8777 4.34455 10.874 4.32845 10.8699 4.3119C10.8625 4.27742 10.8546 4.24247 10.8462 4.20845C10.8397 4.17994 10.8328 4.15143 10.8254 4.12293C10.8207 4.10454 10.8161 4.08614 10.811 4.06775C10.7888 3.98453 10.7651 3.90131 10.7387 3.81947C10.7304 3.79234 10.7216 3.76613 10.7123 3.739C10.7072 3.72291 10.7016 3.70682 10.6961 3.69119C10.6859 3.6613 10.6757 3.63233 10.6646 3.60291C10.653 3.57072 10.6405 3.53762 10.628 3.50497C10.6173 3.47784 10.6066 3.45072 10.596 3.42405C10.5937 3.41853 10.5918 3.41301 10.5895 3.40796C10.5761 3.37577 10.5626 3.34358 10.5487 3.31186C10.5404 3.29209 10.532 3.27186 10.5232 3.25209C10.5144 3.23232 10.5051 3.213 10.4963 3.19323C10.4852 3.16932 10.4741 3.14588 10.4625 3.12243C10.4625 3.12059 10.4616 3.11921 10.4607 3.11783C10.4486 3.09254 10.4366 3.06771 10.424 3.04288C10.4217 3.03828 10.4194 3.03369 10.4171 3.02909C10.4074 3.00932 10.3972 2.99001 10.387 2.97024C10.3828 2.96196 10.3786 2.95414 10.3745 2.94633C10.3731 2.94311 10.3712 2.93989 10.3698 2.93713C10.3652 2.92794 10.3601 2.9192 10.3555 2.91046C10.3494 2.89897 10.3434 2.88747 10.3369 2.87598C10.3314 2.86586 10.3263 2.85575 10.3207 2.84563C10.304 2.81529 10.2869 2.7854 10.2697 2.75551C10.2697 2.75505 10.2693 2.75459 10.2693 2.75459C10.2238 2.67597 10.1766 2.59827 10.1275 2.5224C10.1265 2.52056 10.1256 2.51872 10.1242 2.51734C10.076 2.4424 10.026 2.36929 9.97406 2.29618C9.9722 2.29389 9.97035 2.29159 9.96896 2.28929C9.91705 2.21756 9.86376 2.14675 9.80861 2.07778C9.80676 2.07549 9.8049 2.07273 9.80259 2.07043C9.74697 2.00146 9.68997 1.93249 9.63112 1.86582C9.62973 1.86444 9.6288 1.86352 9.62741 1.86168C9.61212 1.84467 9.59682 1.8272 9.58107 1.81019C9.57273 1.80099 9.56485 1.7918 9.55651 1.78306C9.54909 1.77478 9.54167 1.76697 9.53426 1.75915C9.52407 1.74858 9.51387 1.73708 9.50321 1.72605C9.49626 1.71823 9.48884 1.71133 9.48189 1.70352C9.47726 1.69846 9.47216 1.6934 9.46753 1.68834C9.44574 1.66581 9.42443 1.64374 9.40265 1.62213C9.37669 1.59638 9.35074 1.57064 9.32433 1.54535L9.3132 1.53431C9.29884 1.52052 9.28447 1.50673 9.26964 1.49293C9.25667 1.48052 9.24323 1.46856 9.23025 1.45661C9.20847 1.43638 9.18669 1.41661 9.16491 1.3973C9.16259 1.395 9.15981 1.3927 9.15749 1.3904C9.14405 1.3789 9.13061 1.36695 9.11717 1.355C9.10929 1.3481 9.10142 1.3412 9.09354 1.33476C9.08983 1.33109 9.08566 1.32787 9.08149 1.32419C9.07732 1.32097 9.07361 1.31775 9.06944 1.31407H9.06898C9.06898 1.31407 9.06666 1.31178 9.06527 1.31086C9.05183 1.29936 9.03793 1.28787 9.02449 1.27637C9.02356 1.27545 9.02263 1.27453 9.02171 1.27453C9.018 1.27039 9.01429 1.26718 9.01012 1.26396C9.00595 1.26074 9.00178 1.25706 8.99761 1.25384C8.98973 1.2474 8.98231 1.24097 8.97443 1.23499C8.96609 1.22855 8.95775 1.22166 8.94941 1.21522C8.93782 1.20556 8.92578 1.19591 8.91419 1.18671C8.9026 1.17706 8.89055 1.16832 8.87851 1.15867H8.87804C8.86831 1.15085 8.85858 1.14349 8.84885 1.1366C8.84143 1.1297 8.83355 1.12372 8.82567 1.11774C8.81919 1.11361 8.8127 1.10809 8.80621 1.10303C8.80389 1.10211 8.80204 1.10027 8.79972 1.09843C8.79462 1.09429 8.78906 1.09062 8.78397 1.08694C8.76867 1.07544 8.75292 1.06395 8.73716 1.05245L8.7024 1.02763C8.7024 1.02763 8.69869 1.02487 8.69684 1.02349C8.68618 1.01567 8.67506 1.00785 8.66394 1.00004C8.66255 0.999119 8.66162 0.998659 8.66023 0.997739C8.65003 0.990383 8.63937 0.983026 8.62918 0.976129C8.60091 0.956358 8.57264 0.937047 8.54391 0.918196C8.51518 0.898884 8.48598 0.880033 8.45725 0.861641C8.42805 0.84325 8.39885 0.824858 8.36919 0.806926C8.36132 0.802329 8.3539 0.797731 8.34649 0.793133C8.33907 0.788995 8.33119 0.783937 8.32332 0.779339C8.30802 0.770143 8.29273 0.760488 8.27697 0.751292C8.25936 0.741177 8.24175 0.731521 8.22368 0.720946C8.17502 0.693359 8.12589 0.665771 8.07584 0.639563C8.01143 0.605079 7.94655 0.571055 7.88074 0.539789C7.87518 0.53703 7.86962 0.534731 7.86359 0.532432C7.84922 0.525535 7.83486 0.518639 7.82049 0.511742C7.8103 0.507144 7.8001 0.502086 7.78991 0.497948C7.7862 0.495649 7.78203 0.49427 7.77786 0.49289C7.77647 0.491511 7.77461 0.490591 7.77322 0.490132C7.75839 0.483235 7.74356 0.476338 7.72827 0.469901C7.72317 0.468062 7.71807 0.465763 7.71298 0.463464C7.70927 0.461625 7.7051 0.460245 7.70093 0.458406C7.6949 0.455647 7.68934 0.452889 7.68332 0.45059C7.67544 0.447371 7.66756 0.444153 7.65968 0.440474C7.64439 0.434037 7.62909 0.4276 7.6138 0.421163C7.57904 0.40645 7.5429 0.393116 7.50768 0.379322C7.46736 0.36369 7.4275 0.346677 7.38672 0.331964C7.38394 0.331045 7.38116 0.330125 7.37838 0.329205C7.30747 0.303457 7.23611 0.279548 7.16381 0.256559C7.14296 0.250581 7.1221 0.243685 7.10171 0.237707C7.09754 0.236328 7.09291 0.234949 7.08873 0.234029C7.06695 0.227132 7.04517 0.220695 7.02293 0.214718C7.01273 0.211499 7.00254 0.208741 6.99234 0.205982C6.9891 0.205982 6.98539 0.204143 6.98215 0.203223H6.98168C6.97195 0.200464 6.96268 0.197706 6.95295 0.194947C6.9409 0.191728 6.92931 0.18897 6.91726 0.185751C6.90614 0.182533 6.89502 0.179774 6.88436 0.177015C6.8788 0.175636 6.87324 0.173797 6.86768 0.172417C6.8649 0.171957 6.86258 0.171038 6.8598 0.171038C6.84821 0.16736 6.83616 0.164601 6.82412 0.161382C6.81994 0.160463 6.81624 0.159543 6.81207 0.158624C6.80558 0.157244 6.79863 0.155405 6.79214 0.154026C6.76433 0.147129 6.73606 0.140692 6.70733 0.134714C6.69713 0.131956 6.68694 0.130117 6.67674 0.127818C6.65033 0.1223 6.62438 0.116323 6.59842 0.111265C6.5873 0.108966 6.57572 0.106667 6.56413 0.104368C6.55301 0.102069 6.54189 0.10023 6.5303 0.0983911C6.52242 0.096552 6.51408 0.0951726 6.5062 0.0937932C6.48859 0.0905747 6.47098 0.0868964 6.45337 0.0841377C6.4441 0.0827583 6.4353 0.0809191 6.42649 0.0795398C6.4251 0.0795398 6.42325 0.0795398 6.42186 0.0795398C6.41676 0.0781604 6.41166 0.0772408 6.40656 0.076781C6.38015 0.0721831 6.35327 0.068045 6.32685 0.0639069L6.31712 0.0625276C6.3148 0.0620678 6.31249 0.061608 6.31017 0.061608C6.30785 0.0611482 6.30507 0.0606884 6.30276 0.0602286C6.29117 0.0583895 6.28005 0.0565503 6.26893 0.0551709C6.24483 0.0519524 6.22073 0.0491937 6.19709 0.0459751C6.18273 0.044136 6.16882 0.0422968 6.15446 0.0404577C6.14704 0.0390783 6.13916 0.0381587 6.13175 0.0376989C6.12155 0.0363196 6.11136 0.0349402 6.10116 0.0340206C6.07706 0.0312619 6.05204 0.0285031 6.0284 0.0262042C6.0247 0.0257444 6.02145 0.0257444 6.01775 0.0252846C5.98623 0.0225259 5.95518 0.0197672 5.92367 0.0174682C5.91023 0.0160888 5.89633 0.0151693 5.88289 0.0147095C5.86435 0.0133301 5.84535 0.0119507 5.82681 0.0110312C5.82635 0.0110312 5.82588 0.0110312 5.82542 0.0110312C5.81893 0.0110312 5.81337 0.0101116 5.80688 0.00965178C5.704 0.00505389 5.60019 0.000915786 5.495 0.000915786C2.45813 -3.79246e-06 -0.00500488 2.44883 -0.00500488 5.47057V16.5294C-0.00500488 16.5607 -0.00454145 16.592 -0.00361459 16.6228C0.00797119 17.3442 0.16044 18.0316 0.427376 18.6587C0.496891 18.8224 0.574284 18.9819 0.658628 19.1374C0.785609 19.3695 0.929272 19.5921 1.08777 19.8027C1.29863 20.0836 1.53637 20.3434 1.79682 20.5788C1.92704 20.6965 2.06329 20.8082 2.20417 20.9131C2.41596 21.0708 2.6398 21.2133 2.87337 21.3397C2.95122 21.382 3.03047 21.422 3.11064 21.4607C3.51151 21.6529 3.93879 21.7977 4.38647 21.8887C4.7447 21.9623 5.11545 22 5.495 22H5.50612C5.5951 22 5.68361 21.9972 5.77166 21.9931C5.80364 21.9917 5.83562 21.9885 5.86759 21.9862C5.92691 21.9821 5.98623 21.9784 6.04509 21.9729C6.08216 21.9692 6.11877 21.9637 6.15538 21.9595C6.20868 21.9536 6.26197 21.9471 6.3148 21.9393C6.35327 21.9338 6.39081 21.9264 6.42881 21.92C6.47932 21.9113 6.5303 21.903 6.58035 21.8933C6.61928 21.8851 6.65821 21.8759 6.69713 21.8676C6.74487 21.857 6.79307 21.8464 6.8408 21.8345C6.88019 21.8244 6.91912 21.8133 6.95851 21.8027C7.00485 21.7899 7.0512 21.7775 7.09708 21.7637C7.136 21.7517 7.17401 21.7388 7.21293 21.7264C7.25789 21.7122 7.3033 21.697 7.34779 21.6809C7.38626 21.6671 7.42426 21.6529 7.46226 21.6381C7.50582 21.6216 7.54985 21.6046 7.59295 21.5871C7.63095 21.5715 7.66802 21.5549 7.70556 21.5388C7.7482 21.52 7.79083 21.5011 7.833 21.4814C7.86962 21.4643 7.90623 21.4464 7.94284 21.4285C7.98408 21.4078 8.02533 21.3876 8.06611 21.3655C8.10226 21.3466 8.13794 21.3269 8.17363 21.3071C8.21394 21.285 8.2538 21.262 8.29319 21.239C8.32841 21.2184 8.36317 21.1977 8.39746 21.1756C8.43686 21.1517 8.47532 21.1269 8.51379 21.102C8.54762 21.08 8.58145 21.057 8.61481 21.0344C8.65235 21.0082 8.68989 20.9816 8.72696 20.9549C8.7594 20.9314 8.79231 20.9075 8.82428 20.8832C8.8609 20.8556 8.89704 20.8271 8.93319 20.7981C8.96424 20.7733 8.99575 20.7485 9.02634 20.7227C9.06156 20.6928 9.09632 20.6625 9.13107 20.6321C9.1612 20.6059 9.19132 20.5797 9.22052 20.553C9.22932 20.5448 9.23813 20.536 9.2474 20.5273C10.3221 19.5291 10.995 18.1079 10.995 16.5294C10.995 14.1739 9.49719 12.1674 7.39831 11.3973ZM3.60651 5.51057V5.50965C3.60651 4.47099 4.45552 3.62865 5.50241 3.62865C6.5493 3.62865 7.39831 4.47099 7.39831 5.50965C7.39831 6.1483 7.07761 6.71246 6.58684 7.05225C6.58684 7.05225 6.58684 7.05271 6.58637 7.05271C6.27912 7.26605 5.90559 7.39065 5.50241 7.39065C5.28321 7.39065 5.07281 7.35387 4.87678 7.28628L3.85723 8.29919C3.79606 8.35989 3.73535 8.42058 3.67417 8.48173H3.67371L3.60651 8.5484V5.51057Z" fill="#606161"/>
</g>
<defs>
<clipPath id="clip0_237_16">
<rect width="11" height="22" fill="white" transform="translate(-0.00500488)"/>
</clipPath>
</defs>
</svg>
