<svg width="73" height="18" viewBox="0 0 73 18" fill="none" xmlns="http://www.w3.org/2000/svg">
<path d="M2.728 5.336C2.99467 4.92 3.36267 4.584 3.832 4.328C4.30133 4.072 4.85067 3.944 5.48 3.944C6.216 3.944 6.88267 4.13067 7.48 4.504C8.07733 4.87733 8.54667 5.41067 8.888 6.104C9.24 6.79733 9.416 7.60267 9.416 8.52C9.416 9.43733 9.24 10.248 8.888 10.952C8.54667 11.6453 8.07733 12.184 7.48 12.568C6.88267 12.9413 6.216 13.128 5.48 13.128C4.86133 13.128 4.312 13 3.832 12.744C3.36267 12.488 2.99467 12.1573 2.728 11.752V17.256H-0.00799996V4.072H2.728V5.336ZM6.632 8.52C6.632 7.83733 6.44 7.304 6.056 6.92C5.68267 6.52533 5.21867 6.328 4.664 6.328C4.12 6.328 3.656 6.52533 3.272 6.92C2.89867 7.31467 2.712 7.85333 2.712 8.536C2.712 9.21867 2.89867 9.75733 3.272 10.152C3.656 10.5467 4.12 10.744 4.664 10.744C5.208 10.744 5.672 10.5467 6.056 10.152C6.44 9.74667 6.632 9.20267 6.632 8.52ZM12.2274 3.144C11.7474 3.144 11.3527 3.00533 11.0434 2.728C10.7447 2.44 10.5954 2.088 10.5954 1.672C10.5954 1.24533 10.7447 0.893333 11.0434 0.615999C11.3527 0.327999 11.7474 0.183999 12.2274 0.183999C12.6967 0.183999 13.0807 0.327999 13.3794 0.615999C13.6887 0.893333 13.8434 1.24533 13.8434 1.672C13.8434 2.088 13.6887 2.44 13.3794 2.728C13.0807 3.00533 12.6967 3.144 12.2274 3.144ZM13.5874 4.072V13H10.8514V4.072H13.5874ZM19.6341 13.128C18.7595 13.128 17.9701 12.9413 17.2661 12.568C16.5728 12.1947 16.0235 11.6613 15.6181 10.968C15.2235 10.2747 15.0261 9.464 15.0261 8.536C15.0261 7.61867 15.2288 6.81333 15.6341 6.12C16.0395 5.416 16.5941 4.87733 17.2981 4.504C18.0021 4.13067 18.7915 3.944 19.6661 3.944C20.5408 3.944 21.3301 4.13067 22.0341 4.504C22.7381 4.87733 23.2928 5.416 23.6981 6.12C24.1035 6.81333 24.3061 7.61867 24.3061 8.536C24.3061 9.45333 24.0981 10.264 23.6821 10.968C23.2768 11.6613 22.7168 12.1947 22.0021 12.568C21.2981 12.9413 20.5088 13.128 19.6341 13.128ZM19.6341 10.76C20.1568 10.76 20.5995 10.568 20.9621 10.184C21.3355 9.8 21.5221 9.25067 21.5221 8.536C21.5221 7.82133 21.3408 7.272 20.9781 6.888C20.6261 6.504 20.1888 6.312 19.6661 6.312C19.1328 6.312 18.6901 6.504 18.3381 6.888C17.9861 7.26133 17.8101 7.81067 17.8101 8.536C17.8101 9.25067 17.9808 9.8 18.3221 10.184C18.6741 10.568 19.1115 10.76 19.6341 10.76ZM25.5336 8.616C25.5336 7.72 25.715 6.936 26.0776 6.264C26.4403 5.58133 26.9363 5.05867 27.5656 4.696C28.2056 4.32267 28.9256 4.136 29.7256 4.136C30.4936 4.136 31.187 4.32267 31.8056 4.696C32.4243 5.06933 32.8776 5.55467 33.1656 6.152V1.16H34.2856V13H33.1656V11.048C32.899 11.656 32.4616 12.1573 31.8536 12.552C31.2456 12.936 30.531 13.128 29.7096 13.128C28.9096 13.128 28.1896 12.9413 27.5496 12.568C26.9203 12.1947 26.4243 11.6667 26.0616 10.984C25.7096 10.3013 25.5336 9.512 25.5336 8.616ZM33.1656 8.632C33.1656 7.928 33.0216 7.30933 32.7336 6.776C32.4456 6.24267 32.051 5.832 31.5496 5.544C31.059 5.256 30.515 5.112 29.9176 5.112C29.299 5.112 28.7443 5.25067 28.2536 5.528C27.763 5.80533 27.3736 6.21067 27.0856 6.744C26.8083 7.26667 26.6696 7.89067 26.6696 8.616C26.6696 9.33067 26.8083 9.96 27.0856 10.504C27.3736 11.0373 27.763 11.448 28.2536 11.736C28.7443 12.0133 29.299 12.152 29.9176 12.152C30.515 12.152 31.059 12.008 31.5496 11.72C32.051 11.432 32.4456 11.0213 32.7336 10.488C33.0216 9.95467 33.1656 9.336 33.1656 8.632ZM37.4025 2.616C37.1785 2.616 36.9865 2.536 36.8265 2.376C36.6665 2.216 36.5865 2.01867 36.5865 1.784C36.5865 1.54933 36.6665 1.35733 36.8265 1.208C36.9865 1.048 37.1785 0.967999 37.4025 0.967999C37.6265 0.967999 37.8185 1.048 37.9785 1.208C38.1385 1.35733 38.2185 1.54933 38.2185 1.784C38.2185 2.01867 38.1385 2.216 37.9785 2.376C37.8185 2.536 37.6265 2.616 37.4025 2.616ZM37.9625 4.264V13H36.8425V4.264H37.9625ZM44.1628 4.136C44.9841 4.136 45.6988 4.328 46.3068 4.712C46.9148 5.096 47.3521 5.58133 47.6188 6.168V4.264H48.7388V13.224C48.7388 14.024 48.5628 14.7333 48.2108 15.352C47.8694 15.9707 47.3894 16.4453 46.7708 16.776C46.1521 17.1173 45.4481 17.288 44.6588 17.288C43.5388 17.288 42.6054 17.0213 41.8588 16.488C41.1228 15.9547 40.6641 15.2293 40.4828 14.312H41.5868C41.7788 14.92 42.1414 15.4053 42.6748 15.768C43.2188 16.1307 43.8801 16.312 44.6588 16.312C45.2241 16.312 45.7308 16.1893 46.1788 15.944C46.6268 15.7093 46.9788 15.3573 47.2348 14.888C47.4908 14.4187 47.6188 13.864 47.6188 13.224V11.064C47.3414 11.6613 46.8988 12.1573 46.2908 12.552C45.6934 12.936 44.9841 13.128 44.1628 13.128C43.3628 13.128 42.6428 12.9413 42.0028 12.568C41.3734 12.1947 40.8774 11.6667 40.5148 10.984C40.1628 10.3013 39.9868 9.512 39.9868 8.616C39.9868 7.72 40.1628 6.936 40.5148 6.264C40.8774 5.58133 41.3734 5.05867 42.0028 4.696C42.6428 4.32267 43.3628 4.136 44.1628 4.136ZM47.6188 8.632C47.6188 7.928 47.4748 7.30933 47.1868 6.776C46.8988 6.24267 46.5041 5.832 46.0028 5.544C45.5121 5.256 44.9681 5.112 44.3708 5.112C43.7521 5.112 43.1974 5.25067 42.7068 5.528C42.2161 5.80533 41.8268 6.21067 41.5388 6.744C41.2614 7.26667 41.1228 7.89067 41.1228 8.616C41.1228 9.33067 41.2614 9.96 41.5388 10.504C41.8268 11.0373 42.2161 11.448 42.7068 11.736C43.1974 12.0133 43.7521 12.152 44.3708 12.152C44.9681 12.152 45.5121 12.008 46.0028 11.72C46.5041 11.432 46.8988 11.0213 47.1868 10.488C47.4748 9.95467 47.6188 9.336 47.6188 8.632ZM51.8556 2.616C51.6316 2.616 51.4396 2.536 51.2796 2.376C51.1196 2.216 51.0396 2.01867 51.0396 1.784C51.0396 1.54933 51.1196 1.35733 51.2796 1.208C51.4396 1.048 51.6316 0.967999 51.8556 0.967999C52.0796 0.967999 52.2716 1.048 52.4316 1.208C52.5916 1.35733 52.6716 1.54933 52.6716 1.784C52.6716 2.01867 52.5916 2.216 52.4316 2.376C52.2716 2.536 52.0796 2.616 51.8556 2.616ZM52.4156 4.264V13H51.2956V4.264H52.4156ZM56.4079 5.208V10.632C56.4079 11.1653 56.5092 11.5333 56.7119 11.736C56.9145 11.9387 57.2719 12.04 57.7839 12.04H58.8079V13H57.6079C56.8185 13 56.2319 12.8187 55.8479 12.456C55.4639 12.0827 55.2719 11.4747 55.2719 10.632V5.208H54.0559V4.264H55.2719V2.072H56.4079V4.264H58.8079V5.208H56.4079ZM60.143 8.616C60.143 7.72 60.319 6.936 60.671 6.264C61.0337 5.58133 61.5297 5.05867 62.159 4.696C62.799 4.32267 63.519 4.136 64.319 4.136C65.151 4.136 65.8657 4.328 66.463 4.712C67.071 5.096 67.5083 5.58667 67.775 6.184V4.264H68.895V13H67.775V11.064C67.4977 11.6613 67.055 12.1573 66.447 12.552C65.8497 12.936 65.135 13.128 64.303 13.128C63.5137 13.128 62.799 12.9413 62.159 12.568C61.5297 12.1947 61.0337 11.6667 60.671 10.984C60.319 10.3013 60.143 9.512 60.143 8.616ZM67.775 8.632C67.775 7.928 67.631 7.30933 67.343 6.776C67.055 6.24267 66.6603 5.832 66.159 5.544C65.6683 5.256 65.1243 5.112 64.527 5.112C63.9083 5.112 63.3537 5.25067 62.863 5.528C62.3723 5.80533 61.983 6.21067 61.695 6.744C61.4177 7.26667 61.279 7.89067 61.279 8.616C61.279 9.33067 61.4177 9.96 61.695 10.504C61.983 11.0373 62.3723 11.448 62.863 11.736C63.3537 12.0133 63.9083 12.152 64.527 12.152C65.1243 12.152 65.6683 12.008 66.159 11.72C66.6603 11.432 67.055 11.0213 67.343 10.488C67.631 9.95467 67.775 9.336 67.775 8.632ZM72.5719 1.16V13H71.4519V1.16H72.5719Z" fill="#FEFCF5"/>
</svg>
